<?xml version="1.0" standalone="no"?>
<!DOCTYPE svg PUBLIC "-//W3C//DTD SVG 20010904//EN"
 "http://www.w3.org/TR/2001/REC-SVG-20010904/DTD/svg10.dtd">
<svg version="1.0" xmlns="http://www.w3.org/2000/svg"
 width="512.000000pt" height="512.000000pt" viewBox="0 0 512.000000 512.000000"
 preserveAspectRatio="xMidYMid meet">
<metadata>
Created by potrace 1.14, written by Peter Selinger 2001-2017
</metadata>
<g transform="translate(0.000000,512.000000) scale(0.100000,-0.100000)"
fill="#000000" stroke="none">
<path d="M1510 5083 c0 -21 -2 -490 -4 -1043 -1 -553 -5 -1014 -8 -1025 -4
-11 -14 -54 -23 -95 -30 -130 -91 -267 -175 -390 -40 -59 -168 -195 -235 -251
-62 -51 -186 -121 -300 -169 -32 -13 -116 -38 -167 -50 -92 -20 -157 -24 -375
-25 l-223 0 0 -1018 0 -1018 588 3 587 4 97 26 c159 43 305 123 437 240 88 77
343 186 522 222 403 82 815 2 1154 -223 39 -26 93 -63 122 -83 68 -49 171
-100 263 -131 154 -53 192 -56 778 -57 l542 -1 0 1016 c0 558 -3 1015 -7 1016
-5 0 -114 2 -243 4 -243 3 -318 12 -457 55 -75 23 -229 94 -251 116 -7 8 -17
14 -22 14 -4 0 -34 20 -66 45 -239 185 -393 437 -448 735 -15 81 -18 303 -19
1488 l0 632 -1033 0 -1034 0 0 -37z m1089 -2165 c126 -94 256 -251 332 -400
36 -71 83 -200 93 -252 2 -12 10 -50 16 -86 7 -38 13 -166 14 -308 2 -229 1
-244 -17 -253 -20 -11 -97 -35 -137 -43 -14 -2 -47 -9 -75 -15 -216 -42 -467
-32 -695 30 -41 11 -80 24 -86 30 -18 15 -11 510 10 619 53 289 193 519 408
670 39 28 73 50 76 50 3 0 30 -19 61 -42z"/>
</g>
</svg>
